<svg xmlns="http://www.w3.org/2000/svg" width="19.437" height="16.91" viewBox="0 0 19.437 16.91">
  <defs>
    <style>
      .cls-1 {
        fill: #fff;
        fill-rule: evenodd;
      }
    </style>
  </defs>
  <path id="Forma_1_copy" data-name="Forma 1 copy" class="cls-1" d="M492.353,1167.77a1.615,1.615,0,1,0,1.623,1.62A1.618,1.618,0,0,0,492.353,1167.77Zm7.082,0a1.615,1.615,0,1,0,1.622,1.62A1.618,1.618,0,0,0,499.435,1167.77Zm4.076-8.85h-8.989a0.81,0.81,0,1,0,0,1.62h7.953l-0.5,1.7h-8.085a0.75,0.75,0,1,0,0,1.5h7.638l-0.474,1.59h-9.111l-0.6-4.79-0.577-4.68a0.911,0.911,0,0,0-.679-0.76l-3.844-.98a0.915,0.915,0,0,0-1.109.66,0.905,0.905,0,0,0,.659,1.1l3.242,0.83,1.262,9.42a1.1,1.1,0,0,0,1.047,1.1h10.071a1.062,1.062,0,0,0,1.007-.87l2-5.9S505,1158.92,503.511,1158.92Z" transform="translate(-485.094 -1154.09)"/>
</svg>
