<svg xmlns="http://www.w3.org/2000/svg" width="25.26" height="21.875" viewBox="0 0 25.26 21.875">
  <defs>
    <style>
      .cls-1 {
        fill: #ff5816;
        fill-rule: evenodd;
      }
    </style>
  </defs>
  <path id="Forma_1" data-name="Forma 1" class="cls-1" d="M1360.56,113.821a2.09,2.09,0,1,0,2.11,2.089A2.1,2.1,0,0,0,1360.56,113.821Zm9.21,0a2.09,2.09,0,1,0,2.1,2.089A2.1,2.1,0,0,0,1369.77,113.821Zm5.29-11.455h-11.68a1.049,1.049,0,1,0,0,2.1h10.34l-0.66,2.2-10.51,0a0.972,0.972,0,1,0,0,1.944l9.93,0-0.62,2.057h-11.84l-0.79-6.207-0.75-6.047a1.176,1.176,0,0,0-.88-0.99l-5-1.263a1.186,1.186,0,0,0-1.44.848,1.173,1.173,0,0,0,.86,1.428l4.21,1.065,1.64,12.2a1.43,1.43,0,0,0,1.36,1.424h13.1a1.393,1.393,0,0,0,1.31-1.134l2.59-7.635S1377,102.366,1375.06,102.366Z" transform="translate(-1351.12 -96.125)"/>
</svg>
