<svg xmlns="http://www.w3.org/2000/svg" width="14.88" height="19.907" viewBox="0 0 14.88 19.907">
  <defs>
    <style>
      .cls-1 {
        fill: #499c54;
        fill-rule: evenodd;
      }
    </style>
  </defs>
  <path class="cls-1" d="M1438.12,147.7a7.919,7.919,0,0,1,.24-3.013,7.362,7.362,0,0,1,6.91-5.467v-2.044a0.143,0.143,0,0,1,.23-0.105l4.04,3.09a0.142,0.142,0,0,1,0,.207l-4.04,3.09a0.136,0.136,0,0,1-.22-0.106v-2.039a5.292,5.292,0,0,0-4.78,3.374,5.625,5.625,0,0,0,.74,5.543,1.076,1.076,0,0,1-.19,1.5,0.981,0.981,0,0,1-1.39-.2A7.662,7.662,0,0,1,1438.12,147.7Zm11.65-3.926a5.54,5.54,0,0,1,1.15,3.135,5.643,5.643,0,0,1-.41,2.408,5.276,5.276,0,0,1-4.78,3.374V150.65a0.135,0.135,0,0,0-.22-0.105l-4.04,3.089a0.141,0.141,0,0,0,0,.207l4.03,3.09a0.142,0.142,0,0,0,.23-0.105v-2.044a7.343,7.343,0,0,0,6.91-5.467,7.915,7.915,0,0,0,.25-3.012,7.655,7.655,0,0,0-1.54-3.828,0.981,0.981,0,0,0-1.39-.2A1.076,1.076,0,0,0,1449.77,143.772Z" transform="translate(-1438.06 -137.062)"/>
</svg>
