<svg xmlns="http://www.w3.org/2000/svg" width="25" height="25" viewBox="0 0 25 25">
  <defs>
    <style>
      .cls-1 {
        fill: #445667;
        fill-rule: evenodd;
      }
    </style>
  </defs>
  <path id="Forma_1" data-name="Forma 1" class="cls-1" d="M1067.22,91.5a11.714,11.714,0,1,0-3.43,8.286,11.683,11.683,0,0,0,3.43-8.286h0Zm-2.88-8.838A12.5,12.5,0,1,1,1055.5,79,12.467,12.467,0,0,1,1064.34,82.662Zm-9.23,14.308a0.391,0.391,0,0,1,0,.781h-3.13a0.391,0.391,0,0,1,0-.781h3.13Zm1.56-3.906a0.391,0.391,0,0,1,0-.781,2.741,2.741,0,0,0,1.94-.8l0.02-.021a2.736,2.736,0,0,0-.02-3.846l-0.02-.022a2.745,2.745,0,0,0-1.92-.781h-4.69a0.391,0.391,0,0,1,0-.781h4.69a3.486,3.486,0,0,1,2.46,1.008l0.03,0.023a3.509,3.509,0,0,1,.02,4.947l-0.02.025A3.522,3.522,0,0,1,1056.67,93.064Zm-4.69,0a0.391,0.391,0,0,1,0-.781h4.69a0.391,0.391,0,0,1,0,.781h-4.69Zm1.96,4.3a0.394,0.394,0,0,1-.39.391,0.388,0.388,0,0,1-.39-0.391V86.423a0.387,0.387,0,0,1,.39-0.39,0.394,0.394,0,0,1,.39.39V97.36Zm-1.96-2.733a0.391,0.391,0,0,1,0-.781h5.47a0.391,0.391,0,0,1,0,.781h-5.47Z" transform="translate(-1043 -79)"/>
</svg>
