<svg xmlns="http://www.w3.org/2000/svg" width="22.031" height="23" viewBox="0 0 22.031 22">
  <defs>
    <style>
      .cls-1 {
        fill: #ff5816;
        fill-rule: evenodd;
      }
    </style>
  </defs>
  <path id="поиск" class="cls-1" d="M739.69,117.038l-5.43-5.446a8.666,8.666,0,0,0,2.161-5.71,9.218,9.218,0,1,0-9.211,8.882,9.345,9.345,0,0,0,5.277-1.607l5.472,5.487a1.233,1.233,0,0,0,1.7.032A1.13,1.13,0,0,0,739.69,117.038ZM727.21,99.317a6.569,6.569,0,1,1-6.809,6.565A6.7,6.7,0,0,1,727.21,99.317Z" transform="translate(-718 -97)"/>
</svg>
